<svg 
  width="192" 
  height="192" 
  viewBox="0 0 192 192" 
  fill="none" 
  xmlns="http://www.w3.org/2000/svg"
>
  <style>
    .bg { fill: #211F26 }
    .text { fill: #D0CDD7 }

    @media (prefers-color-scheme: light) {
      .bg  { fill: white }
      .text { fill: black }
    }
  </style>
  <circle class="bg" cx="96" cy="96" r="96" />
  <path fill="#D0CDD7" class="text" d="M66.3352 138V44.9091H97.7898C105.063 44.9091 111.032 46.1515 115.699 48.6364C120.366 51.0909 123.82 54.4697 126.062 58.7727C128.305 63.0758 129.426 67.9697 129.426 73.4545C129.426 78.9394 128.305 83.803 126.062 88.0455C123.82 92.2879 120.381 95.6212 115.744 98.0455C111.108 100.439 105.184 101.636 97.9716 101.636H72.517V91.4545H97.608C102.578 91.4545 106.578 90.7273 109.608 89.2727C112.669 87.8182 114.881 85.7576 116.244 83.0909C117.638 80.3939 118.335 77.1818 118.335 73.4545C118.335 69.7273 117.638 66.4697 116.244 63.6818C114.85 60.8939 112.623 58.7424 109.562 57.2273C106.502 55.6818 102.456 54.9091 97.4261 54.9091H77.608V138H66.3352ZM110.153 96.1818L133.062 138H119.972L97.4261 96.1818H110.153Z" />
</svg>
